<svg width="25" height="22" viewBox="0 0 25 22" fill="none" xmlns="http://www.w3.org/2000/svg">
<path d="M0.892857 4.01786H24.1071C24.6003 4.01786 25 3.61814 25 3.125V0.892857C25 0.399721 24.6003 0 24.1071 0H0.892857C0.399721 0 0 0.399721 0 0.892857V3.125C0 3.61814 0.399721 4.01786 0.892857 4.01786ZM0.892857 12.9464H24.1071C24.6003 12.9464 25 12.5467 25 12.0536V9.82143C25 9.32829 24.6003 8.92857 24.1071 8.92857H0.892857C0.399721 8.92857 0 9.32829 0 9.82143V12.0536C0 12.5467 0.399721 12.9464 0.892857 12.9464ZM0.892857 21.875H24.1071C24.6003 21.875 25 21.4753 25 20.9821V18.75C25 18.2569 24.6003 17.8571 24.1071 17.8571H0.892857C0.399721 17.8571 0 18.2569 0 18.75V20.9821C0 21.4753 0.399721 21.875 0.892857 21.875Z" fill="#303463"/>
</svg>
